<mxfile host="Electron" modified="2024-03-19T19:45:18.109Z" agent="Mozilla/5.0 (Windows NT 10.0; Win64; x64) AppleWebKit/537.36 (KHTML, like Gecko) draw.io/24.0.4 Chrome/120.0.6099.109 Electron/28.1.0 Safari/537.36" etag="PborqsGHuMY_v3QABG4K" version="24.0.4" type="device">
  <diagram name="Page-1" id="ld7CmsUvaV0AVpA8dhAq">
    <mxGraphModel dx="1050" dy="629" grid="1" gridSize="10" guides="1" tooltips="1" connect="1" arrows="1" fold="1" page="1" pageScale="1" pageWidth="827" pageHeight="1169" math="0" shadow="0">
      <root>
        <mxCell id="0" />
        <mxCell id="1" parent="0" />
        <mxCell id="T1XYOGO6bA13OGjwMOYq-1" value="RH" style="ellipse;shape=umlControl;whiteSpace=wrap;html=1;" parent="1" vertex="1">
          <mxGeometry x="730" y="290" width="70" height="80" as="geometry" />
        </mxCell>
        <mxCell id="T1XYOGO6bA13OGjwMOYq-5" style="rounded=0;orthogonalLoop=1;jettySize=auto;html=1;elbow=vertical;endArrow=none;endFill=0;" parent="1" source="T1XYOGO6bA13OGjwMOYq-2" target="T1XYOGO6bA13OGjwMOYq-4" edge="1">
          <mxGeometry relative="1" as="geometry" />
        </mxCell>
        <mxCell id="T1XYOGO6bA13OGjwMOYq-2" value="EmployÃ©" style="shape=umlActor;verticalLabelPosition=bottom;verticalAlign=top;html=1;" parent="1" vertex="1">
          <mxGeometry x="30" y="300" width="30" height="60" as="geometry" />
        </mxCell>
        <mxCell id="T1XYOGO6bA13OGjwMOYq-7" style="rounded=0;orthogonalLoop=1;jettySize=auto;html=1;endArrow=none;endFill=0;" parent="1" source="T1XYOGO6bA13OGjwMOYq-3" target="T1XYOGO6bA13OGjwMOYq-1" edge="1">
          <mxGeometry relative="1" as="geometry" />
        </mxCell>
        <mxCell id="T1XYOGO6bA13OGjwMOYq-8" style="rounded=0;orthogonalLoop=1;jettySize=auto;html=1;endArrow=none;endFill=0;" parent="1" source="T1XYOGO6bA13OGjwMOYq-3" target="T1XYOGO6bA13OGjwMOYq-2" edge="1">
          <mxGeometry relative="1" as="geometry" />
        </mxCell>
        <mxCell id="T1XYOGO6bA13OGjwMOYq-3" value="Visualiser les absences" style="ellipse;whiteSpace=wrap;html=1;" parent="1" vertex="1">
          <mxGeometry x="330" y="60" width="140" height="70" as="geometry" />
        </mxCell>
        <mxCell id="T1XYOGO6bA13OGjwMOYq-6" style="rounded=0;orthogonalLoop=1;jettySize=auto;html=1;endArrow=none;endFill=0;" parent="1" source="T1XYOGO6bA13OGjwMOYq-4" target="T1XYOGO6bA13OGjwMOYq-1" edge="1">
          <mxGeometry relative="1" as="geometry" />
        </mxCell>
        <mxCell id="T1XYOGO6bA13OGjwMOYq-4" value="Traiter une demande d&#39;absence" style="ellipse;whiteSpace=wrap;html=1;" parent="1" vertex="1">
          <mxGeometry x="330" y="370" width="140" height="70" as="geometry" />
        </mxCell>
        <mxCell id="T1XYOGO6bA13OGjwMOYq-11" style="rounded=0;orthogonalLoop=1;jettySize=auto;html=1;endArrow=none;endFill=0;" parent="1" source="T1XYOGO6bA13OGjwMOYq-10" target="T1XYOGO6bA13OGjwMOYq-2" edge="1">
          <mxGeometry relative="1" as="geometry" />
        </mxCell>
        <mxCell id="T1XYOGO6bA13OGjwMOYq-12" style="rounded=0;orthogonalLoop=1;jettySize=auto;html=1;endArrow=none;endFill=0;" parent="1" source="T1XYOGO6bA13OGjwMOYq-10" target="T1XYOGO6bA13OGjwMOYq-1" edge="1">
          <mxGeometry relative="1" as="geometry" />
        </mxCell>
        <mxCell id="T1XYOGO6bA13OGjwMOYq-10" value="Offrir un rapport" style="ellipse;whiteSpace=wrap;html=1;" parent="1" vertex="1">
          <mxGeometry x="330" y="200" width="140" height="70" as="geometry" />
        </mxCell>
        <mxCell id="_Uvq5ZIpCV8GfxaU9uLt-2" style="rounded=0;orthogonalLoop=1;jettySize=auto;html=1;endArrow=none;endFill=0;" edge="1" parent="1" source="_Uvq5ZIpCV8GfxaU9uLt-1" target="T1XYOGO6bA13OGjwMOYq-1">
          <mxGeometry relative="1" as="geometry" />
        </mxCell>
        <mxCell id="_Uvq5ZIpCV8GfxaU9uLt-3" style="rounded=0;orthogonalLoop=1;jettySize=auto;html=1;endArrow=none;endFill=0;" edge="1" parent="1" source="_Uvq5ZIpCV8GfxaU9uLt-1" target="T1XYOGO6bA13OGjwMOYq-2">
          <mxGeometry relative="1" as="geometry" />
        </mxCell>
        <mxCell id="_Uvq5ZIpCV8GfxaU9uLt-1" value="Offrir une demande d&#39;absence" style="ellipse;whiteSpace=wrap;html=1;" vertex="1" parent="1">
          <mxGeometry x="330" y="540" width="140" height="70" as="geometry" />
        </mxCell>
      </root>
    </mxGraphModel>
  </diagram>
</mxfile>
